<?xml version="1.0" encoding="UTF-8"?><svg id="Layer_1" xmlns="http://www.w3.org/2000/svg" viewBox="0 0 32 32"><defs><style>.cls-1{fill:#343838;}.cls-2{fill:#aa6936;}.cls-3{fill:#fbc988;}</style></defs><rect class="cls-3" x="4.94" y="5.59" width="22.07" height="20.83" rx="1.85" ry="1.85"/><g><polygon class="cls-1" points="21.42 15.19 20.02 12.78 22.82 12.78 21.42 15.19"/><path class="cls-1" d="M19.71,22.62H10.89c-1.22,0-2.21-.99-2.21-2.21V11.59c0-1.22,.99-2.21,2.21-2.21h8.83c1.22,0,2.21,.99,2.21,2.21v1.24c0,.28-.22,.5-.5,.5s-.5-.22-.5-.5v-1.24c0-.67-.54-1.21-1.21-1.21H10.89c-.67,0-1.21,.54-1.21,1.21v8.83c0,.67,.54,1.21,1.21,1.21h8.83c.28,0,.5,.22,.5,.5s-.22,.5-.5,.5Z"/></g><g><path class="cls-2" d="M11.73,17.68c.5-.42,.9-.77,1.2-1.05s.55-.57,.75-.87c.2-.3,.3-.6,.3-.89,0-.27-.06-.48-.19-.63-.13-.15-.32-.23-.58-.23s-.46,.09-.6,.26c-.14,.18-.21,.42-.22,.72h-1.07c.02-.63,.21-1.1,.56-1.43s.8-.49,1.35-.49c.6,0,1.05,.16,1.37,.48s.48,.73,.48,1.25c0,.41-.11,.8-.33,1.17-.22,.37-.47,.69-.75,.97s-.65,.61-1.11,.99h2.31v.91h-3.88v-.82l.41-.35Z"/><path class="cls-2" d="M15.22,17.81v-.86l2.57-3.67h1.28v3.58h.69v.96h-.69v1.11h-1.1v-1.11h-2.75Zm2.82-3.36l-1.61,2.4h1.61v-2.4Z"/></g></svg>